<svg width="34" height="34" viewBox="0 0 34 34" fill="none" xmlns="http://www.w3.org/2000/svg">
<g clip-path="url(#clip0_211_2046)">
<path fill-rule="evenodd" clip-rule="evenodd" d="M9.97904 3.15002C13.8233 3.15002 16.9397 6.26643 16.9397 10.1107V3.15002H23.9004C27.7447 3.15002 30.8611 6.26643 30.8611 10.1107C30.8611 13.955 27.7447 17.0714 23.9004 17.0714C27.7447 17.0714 30.8611 20.1879 30.8611 24.0321C30.8611 25.9409 30.0927 27.6703 28.8484 28.9278L28.8224 28.9541L28.7993 28.9771C27.5415 30.2232 25.8109 30.9928 23.9004 30.9928C22.003 30.9928 20.2829 30.2336 19.0272 29.0024C19.011 28.9864 18.9947 28.9702 18.9784 28.9541C18.9632 28.9388 18.948 28.9235 18.9329 28.9081C17.7001 27.6523 16.9397 25.931 16.9397 24.0321C16.9397 27.8764 13.8233 30.9928 9.97904 30.9928C6.13475 30.9928 3.01834 27.8764 3.01834 24.0321V17.0714H9.97904C6.13475 17.0714 3.01834 13.955 3.01834 10.1107C3.01834 6.26643 6.13475 3.15002 9.97904 3.15002ZM15.5476 10.1107C15.5476 13.1862 13.0545 15.6793 9.97904 15.6793V4.54216C13.0545 4.54216 15.5476 7.03529 15.5476 10.1107ZM29.469 24.0321C29.469 20.9567 26.9759 18.4636 23.9004 18.4636C20.825 18.4636 18.3319 20.9567 18.3319 24.0321H29.469ZM4.41048 18.4636V24.0321C4.41048 27.1076 6.90361 29.6007 9.97904 29.6007C13.0545 29.6007 15.5476 27.1076 15.5476 24.0321V18.4636H4.41048ZM18.3319 15.6793V4.54216H23.9004C26.9759 4.54216 29.469 7.03529 29.469 10.1107C29.469 13.1862 26.9759 15.6793 23.9004 15.6793H18.3319Z" fill="#263238"/>
</g>
<defs>
<clipPath id="clip0_211_2046">
<rect width="27.8428" height="27.8428" fill="white" transform="translate(3.01834 3.15002)"/>
</clipPath>
</defs>
</svg>
