<svg width="23" height="22" viewBox="0 0 23 22" fill="none" xmlns="http://www.w3.org/2000/svg">
<mask id="path-1-inside-1_211_2339" fill="white">
<path d="M14.315 10.6106C14.1474 10.6106 13.9918 10.5645 13.8536 10.4904V10.4924C13.8536 10.7561 13.7511 11.0037 13.5651 11.1892C13.3791 11.3752 13.1317 11.4777 12.8683 11.4777C12.6982 11.4777 12.5406 11.4304 12.4009 11.3543C12.3868 11.5956 12.2904 11.8211 12.1183 11.9933C11.9324 12.1792 11.6849 12.2817 11.4214 12.2817C10.8977 12.2817 10.4725 11.8701 10.4418 11.3542C10.2798 11.4418 10.0966 11.4877 9.9077 11.4755C9.39257 11.4418 8.98917 10.9967 8.98917 10.462V6.03042L8.48454 6.90466C8.29235 7.23904 7.93256 7.44665 7.5452 7.44665C7.35644 7.44665 7.16998 7.39712 7.00484 7.3025C6.7992 7.18328 6.6521 6.9919 6.59093 6.76294C6.52943 6.53385 6.56124 6.29425 6.68014 6.08892C6.6803 6.08892 8.33121 3.23002 8.43192 3.05441C8.4439 3.02801 8.47801 2.95143 8.50703 2.88616C8.53475 2.82384 8.55853 2.75988 8.58132 2.6956C9.07919 1.29004 10.3119 0.416935 11.7987 0.416935C13.7294 0.416935 15.3001 2.12015 15.3001 4.21371L15.3003 9.6252C15.3003 9.88857 15.1979 10.136 15.0121 10.3222C14.8262 10.5082 14.5787 10.6107 14.315 10.6107L14.315 10.6106ZM11.7987 0.940478C10.5212 0.940478 9.50297 1.66207 9.0748 2.87069C9.04741 2.94744 9.01888 3.02418 8.98558 3.09897C8.88899 3.3156 8.88899 3.3156 8.86177 3.34676L8.85816 3.34364C8.72336 3.59799 8.32289 4.29151 7.13345 6.35094C7.08458 6.4354 7.07163 6.53347 7.09656 6.62727C7.12181 6.72107 7.18233 6.80012 7.26613 6.84849C7.52622 6.99789 7.88242 6.90146 8.03066 6.64318L9.02429 4.92288C9.08366 4.82038 9.2037 4.77004 9.31882 4.8012C9.43329 4.83186 9.51283 4.93567 9.51283 5.05407V10.4622C9.51283 10.7174 9.70535 10.9376 9.94201 10.9532C10.0785 10.9604 10.2057 10.9146 10.3013 10.8192C10.3882 10.7323 10.4361 10.6165 10.4361 10.4927V6.9557C10.4361 6.81106 10.5534 6.69381 10.698 6.69381C10.8427 6.69381 10.9599 6.8109 10.9599 6.9557L10.9597 11.2967C10.9597 11.5512 11.1669 11.7583 11.4214 11.7583C11.545 11.7583 11.6611 11.7104 11.7482 11.6235C11.8351 11.5364 11.883 11.4203 11.883 11.2966V6.9557C11.883 6.81106 12.0001 6.6938 12.1449 6.6938C12.2896 6.6938 12.4068 6.81089 12.4068 6.9557L12.4067 10.452V10.4927C12.4067 10.747 12.6138 10.9541 12.8685 10.9541C12.9919 10.9541 13.1077 10.9061 13.1953 10.8189C13.2822 10.7321 13.3301 10.6163 13.3301 10.4925V6.95552C13.3301 6.81088 13.4472 6.69362 13.592 6.69362C13.7366 6.69362 13.8539 6.81071 13.8539 6.95552L13.8536 9.62532C13.8536 9.88 14.0607 10.0871 14.315 10.0871C14.4388 10.0871 14.5546 10.0391 14.6415 9.95233C14.7288 9.86508 14.7765 9.74897 14.7765 9.62532L14.7767 4.21383C14.7767 2.40911 13.4408 0.940532 11.7987 0.940532L11.7987 0.940478Z"/>
</mask>
<path d="M14.315 10.6106C14.1474 10.6106 13.9918 10.5645 13.8536 10.4904V10.4924C13.8536 10.7561 13.7511 11.0037 13.5651 11.1892C13.3791 11.3752 13.1317 11.4777 12.8683 11.4777C12.6982 11.4777 12.5406 11.4304 12.4009 11.3543C12.3868 11.5956 12.2904 11.8211 12.1183 11.9933C11.9324 12.1792 11.6849 12.2817 11.4214 12.2817C10.8977 12.2817 10.4725 11.8701 10.4418 11.3542C10.2798 11.4418 10.0966 11.4877 9.9077 11.4755C9.39257 11.4418 8.98917 10.9967 8.98917 10.462V6.03042L8.48454 6.90466C8.29235 7.23904 7.93256 7.44665 7.5452 7.44665C7.35644 7.44665 7.16998 7.39712 7.00484 7.3025C6.7992 7.18328 6.6521 6.9919 6.59093 6.76294C6.52943 6.53385 6.56124 6.29425 6.68014 6.08892C6.6803 6.08892 8.33121 3.23002 8.43192 3.05441C8.4439 3.02801 8.47801 2.95143 8.50703 2.88616C8.53475 2.82384 8.55853 2.75988 8.58132 2.6956C9.07919 1.29004 10.3119 0.416935 11.7987 0.416935C13.7294 0.416935 15.3001 2.12015 15.3001 4.21371L15.3003 9.6252C15.3003 9.88857 15.1979 10.136 15.0121 10.3222C14.8262 10.5082 14.5787 10.6107 14.315 10.6107L14.315 10.6106ZM11.7987 0.940478C10.5212 0.940478 9.50297 1.66207 9.0748 2.87069C9.04741 2.94744 9.01888 3.02418 8.98558 3.09897C8.88899 3.3156 8.88899 3.3156 8.86177 3.34676L8.85816 3.34364C8.72336 3.59799 8.32289 4.29151 7.13345 6.35094C7.08458 6.4354 7.07163 6.53347 7.09656 6.62727C7.12181 6.72107 7.18233 6.80012 7.26613 6.84849C7.52622 6.99789 7.88242 6.90146 8.03066 6.64318L9.02429 4.92288C9.08366 4.82038 9.2037 4.77004 9.31882 4.8012C9.43329 4.83186 9.51283 4.93567 9.51283 5.05407V10.4622C9.51283 10.7174 9.70535 10.9376 9.94201 10.9532C10.0785 10.9604 10.2057 10.9146 10.3013 10.8192C10.3882 10.7323 10.4361 10.6165 10.4361 10.4927V6.9557C10.4361 6.81106 10.5534 6.69381 10.698 6.69381C10.8427 6.69381 10.9599 6.8109 10.9599 6.9557L10.9597 11.2967C10.9597 11.5512 11.1669 11.7583 11.4214 11.7583C11.545 11.7583 11.6611 11.7104 11.7482 11.6235C11.8351 11.5364 11.883 11.4203 11.883 11.2966V6.9557C11.883 6.81106 12.0001 6.6938 12.1449 6.6938C12.2896 6.6938 12.4068 6.81089 12.4068 6.9557L12.4067 10.452V10.4927C12.4067 10.747 12.6138 10.9541 12.8685 10.9541C12.9919 10.9541 13.1077 10.9061 13.1953 10.8189C13.2822 10.7321 13.3301 10.6163 13.3301 10.4925V6.95552C13.3301 6.81088 13.4472 6.69362 13.592 6.69362C13.7366 6.69362 13.8539 6.81071 13.8539 6.95552L13.8536 9.62532C13.8536 9.88 14.0607 10.0871 14.315 10.0871C14.4388 10.0871 14.5546 10.0391 14.6415 9.95233C14.7288 9.86508 14.7765 9.74897 14.7765 9.62532L14.7767 4.21383C14.7767 2.40911 13.4408 0.940532 11.7987 0.940532L11.7987 0.940478Z" fill="#4CAF4F"/>
<path d="M14.315 10.6106V9.68254H17.594L14.8015 11.401L14.315 10.6106ZM13.8536 10.4904H12.9255V8.93969L14.2921 9.67249L13.8536 10.4904ZM13.5651 11.1892L12.9088 10.5329L12.9097 10.5321L13.5651 11.1892ZM12.4009 11.3543L11.4744 11.3002L11.5598 9.83952L12.8448 10.5393L12.4009 11.3543ZM12.1183 11.9933L12.775 12.6492L12.7746 12.6495L12.1183 11.9933ZM10.4418 11.3542L10.0006 10.5377L11.2819 9.84517L11.3683 11.2992L10.4418 11.3542ZM9.9077 11.4755L9.8482 12.4017L9.84696 12.4016L9.9077 11.4755ZM8.98917 6.03042L8.18537 5.56645L9.91726 2.56604V6.03042H8.98917ZM8.48454 6.90466L7.6799 6.44215L7.68075 6.44069L8.48454 6.90466ZM7.00484 7.3025L6.54342 8.10777L6.53936 8.10542L7.00484 7.3025ZM6.59093 6.76294L7.48729 6.52234L7.48757 6.52338L6.59093 6.76294ZM6.68014 6.08892L5.87697 5.62386L6.14508 5.16083H6.68014V6.08892ZM8.43192 3.05441L9.27719 3.43767L9.25896 3.47786L9.23701 3.51614L8.43192 3.05441ZM8.50703 2.88616L7.65902 2.50903L7.65902 2.50902L8.50703 2.88616ZM8.58132 2.6956L9.45616 3.00547L9.45607 3.00572L8.58132 2.6956ZM15.3001 4.21371L14.372 4.21374V4.21371H15.3001ZM15.3003 9.6252L16.2283 9.62517V9.6252H15.3003ZM15.0121 10.3222L15.669 10.9778L15.6684 10.9784L15.0121 10.3222ZM14.315 10.6107V11.5387H11.036L13.8286 9.82023L14.315 10.6107ZM11.7987 0.940478V0.0123854H13.0291L12.6911 1.19545L11.7987 0.940478ZM9.0748 2.87069L9.94962 3.18061L9.9489 3.1826L9.0748 2.87069ZM8.98558 3.09897L9.83345 3.47642L9.83324 3.47691L8.98558 3.09897ZM8.86177 3.34676L9.56067 3.95741L8.95352 4.6523L8.25515 4.04916L8.86177 3.34676ZM8.85816 3.34364L8.03812 2.90904L8.58344 1.88008L9.46478 2.64124L8.85816 3.34364ZM7.13345 6.35094L7.93714 6.81511L7.93675 6.81578L7.13345 6.35094ZM7.09656 6.62727L6.20037 6.86855L6.1996 6.86564L7.09656 6.62727ZM7.26613 6.84849L6.80386 7.65327L6.80212 7.65227L7.26613 6.84849ZM8.03066 6.64318L7.22572 6.18119L7.22699 6.17898L8.03066 6.64318ZM9.02429 4.92288L8.22063 4.45868L8.22119 4.45771L9.02429 4.92288ZM9.31882 4.8012L9.07865 5.69768L9.07635 5.69705L9.31882 4.8012ZM9.94201 10.9532L9.89299 11.8801L9.88106 11.8793L9.94201 10.9532ZM10.3013 10.8192L10.9576 11.4755L10.957 11.476L10.3013 10.8192ZM10.9599 6.9557H11.888V6.95574L10.9599 6.9557ZM10.9597 11.2967H10.0317V11.2966L10.9597 11.2967ZM11.7482 11.6235L12.4051 12.2791L12.4038 12.2804L11.7482 11.6235ZM12.4068 6.9557H13.3349V6.95574L12.4068 6.9557ZM12.4067 10.452H11.4786V10.452L12.4067 10.452ZM13.1953 10.8189L13.8509 11.4757L13.8503 11.4763L13.1953 10.8189ZM13.8539 6.95552H14.782V6.95563L13.8539 6.95552ZM13.8536 9.62532H12.9255V9.62521L13.8536 9.62532ZM14.6415 9.95233L15.2978 10.6086L15.2972 10.6092L14.6415 9.95233ZM14.7765 9.62532H13.8484V9.6253L14.7765 9.62532ZM14.7767 4.21383H15.7048V4.21386L14.7767 4.21383ZM11.7987 0.940532V1.86862H10.5683L10.9063 0.685565L11.7987 0.940532ZM14.315 11.5387C13.9733 11.5387 13.6682 11.4441 13.415 11.3084L14.2921 9.67249C14.3041 9.67892 14.3117 9.68138 14.3148 9.6822C14.3174 9.6829 14.317 9.68254 14.315 9.68254V11.5387ZM14.7817 10.4904V10.4924H12.9255V10.4904H14.7817ZM14.7817 10.4924C14.7817 11.0015 14.5819 11.4859 14.2205 11.8463L12.9097 10.5321C12.9163 10.5255 12.9196 10.5198 12.9216 10.5152C12.9235 10.5105 12.9255 10.5034 12.9255 10.4924H14.7817ZM14.2214 11.8455C13.8612 12.2056 13.3776 12.4058 12.8683 12.4058V10.5496C12.8789 10.5496 12.886 10.5476 12.8907 10.5457C12.8955 10.5437 12.9016 10.5402 12.9088 10.5329L14.2214 11.8455ZM12.8683 12.4058C12.5221 12.4058 12.2132 12.3089 11.957 12.1694L12.8448 10.5393C12.8569 10.5459 12.8645 10.5484 12.8676 10.5492C12.8702 10.5499 12.8699 10.5496 12.8683 10.5496V12.4058ZM13.3274 11.4085C13.3007 11.8653 13.1154 12.3084 12.775 12.6492L11.4617 11.3374C11.4652 11.3339 11.4672 11.3309 11.4689 11.327C11.4707 11.3229 11.4736 11.3144 11.4744 11.3002L13.3274 11.4085ZM12.7746 12.6495C12.4144 13.0098 11.9308 13.2098 11.4214 13.2098V11.3536C11.4322 11.3536 11.4392 11.3517 11.444 11.3497C11.4487 11.3478 11.4548 11.3443 11.4621 11.337L12.7746 12.6495ZM11.4214 13.2098C10.3967 13.2098 9.57456 12.4057 9.51537 11.4092L11.3683 11.2992C11.3692 11.3149 11.3757 11.3288 11.3871 11.3397C11.3927 11.345 11.3983 11.3484 11.4033 11.3504C11.4076 11.3522 11.4131 11.3536 11.4214 11.3536V13.2098ZM10.8831 12.1707C10.5833 12.3327 10.2279 12.4261 9.8482 12.4017L9.96719 10.5494C9.96721 10.5494 9.96919 10.5496 9.97408 10.5484C9.97932 10.5472 9.9884 10.5443 10.0006 10.5377L10.8831 12.1707ZM9.84696 12.4016C8.81647 12.3341 8.06108 11.4577 8.06108 10.462H9.91726C9.91726 10.4934 9.92865 10.5176 9.94294 10.5334C9.95686 10.5487 9.96631 10.5493 9.96843 10.5494L9.84696 12.4016ZM8.06108 10.462V6.03042H9.91726V10.462H8.06108ZM9.79297 6.49439L9.28834 7.36862L7.68075 6.44069L8.18537 5.56645L9.79297 6.49439ZM9.28919 7.36716C8.93056 7.99107 8.26303 8.37474 7.5452 8.37474V6.51855C7.6021 6.51855 7.65413 6.487 7.6799 6.44216L9.28919 7.36716ZM7.5452 8.37474C7.19423 8.37474 6.84874 8.2827 6.54343 8.10776L7.46626 6.49723C7.49122 6.51153 7.51865 6.51855 7.5452 6.51855V8.37474ZM6.53936 8.10542C6.12268 7.86385 5.81938 7.47072 5.69429 7.00251L7.48757 6.52338C7.48672 6.52021 7.48441 6.51461 7.47994 6.50878C7.4755 6.503 7.4714 6.50019 7.47033 6.49958L6.53936 8.10542ZM5.69456 7.00355C5.56898 6.53568 5.63473 6.04223 5.87697 5.62386L7.48331 6.55398C7.48463 6.5517 7.48695 6.5464 7.48794 6.5389C7.48894 6.53138 7.4881 6.52537 7.48729 6.52234L5.69456 7.00355ZM6.68014 5.16083C6.22487 5.28016 5.88411 5.61175 5.88156 5.61602C5.88072 5.61745 5.87945 5.6196 5.87905 5.62029C5.87882 5.62068 5.87843 5.62136 5.87829 5.62159C5.87821 5.62173 5.87804 5.62203 5.878 5.6221C5.87787 5.62232 5.87791 5.62225 5.87826 5.62165C5.87889 5.62056 5.87995 5.61873 5.88149 5.61607C5.88454 5.6108 5.88912 5.60287 5.89517 5.5924C5.90725 5.57149 5.92501 5.54075 5.94768 5.50151C5.99301 5.42303 6.05789 5.3107 6.13606 5.17533C6.29242 4.90459 6.50193 4.54177 6.71458 4.17346C7.1406 3.4356 7.57737 2.67895 7.62684 2.59269L9.23701 3.51614C9.18577 3.60549 8.74672 4.36609 8.32207 5.10158C8.10939 5.46994 7.89984 5.83282 7.74346 6.10361C7.66527 6.23901 7.60035 6.3514 7.55498 6.42996C7.53229 6.46923 7.51447 6.50008 7.5023 6.52114C7.49622 6.53165 7.49151 6.5398 7.4883 6.54536C7.48671 6.54811 7.48539 6.55039 7.48443 6.55205C7.48398 6.55282 7.48342 6.55378 7.48289 6.5547C7.48269 6.55504 7.4821 6.55607 7.48138 6.55729C7.48093 6.55806 7.47963 6.56028 7.47875 6.56175C7.47618 6.56607 7.1354 6.89768 6.68014 7.01701V5.16083ZM7.58666 2.67115C7.59688 2.64862 7.62925 2.57598 7.65902 2.50903L9.35505 3.26328C9.32677 3.32688 9.29091 3.4074 9.27719 3.43767L7.58666 2.67115ZM7.65902 2.50902C7.67192 2.48002 7.6862 2.44296 7.70658 2.38547L9.45607 3.00572C9.43086 3.07681 9.39758 3.16766 9.35505 3.2633L7.65902 2.50902ZM7.70649 2.38572C8.33508 0.611106 9.91725 -0.511158 11.7987 -0.511158V1.34503C10.7066 1.34503 9.8233 1.96897 9.45616 3.00547L7.70649 2.38572ZM11.7987 -0.511158C14.3113 -0.511158 16.2282 1.67978 16.2282 4.21371H14.372C14.372 2.56052 13.1475 1.34503 11.7987 1.34503V-0.511158ZM16.2282 4.21368L16.2283 9.62517L14.3722 9.62523L14.372 4.21374L16.2282 4.21368ZM16.2283 9.6252C16.2283 10.1341 16.0287 10.6175 15.669 10.9778L14.3553 9.66653C14.3626 9.65919 14.3662 9.65293 14.3682 9.64806C14.3702 9.64318 14.3722 9.63602 14.3722 9.6252H16.2283ZM15.6684 10.9784C15.3081 11.3387 14.8245 11.5387 14.315 11.5387V9.68256C14.3259 9.68256 14.333 9.68058 14.3378 9.67862C14.3425 9.67666 14.3486 9.67317 14.3559 9.66593L15.6684 10.9784ZM13.8286 9.82023L13.8286 9.82021L14.8015 11.401L14.8014 11.4011L13.8286 9.82023ZM11.7987 1.86857C10.9163 1.86857 10.2472 2.34061 9.94961 3.18061L8.19998 2.56077C8.75875 0.983521 10.1261 0.0123854 11.7987 0.0123854V1.86857ZM9.9489 3.1826C9.91961 3.2647 9.88155 3.36839 9.83345 3.47642L8.13771 2.72151C8.1562 2.67998 8.17521 2.63017 8.20069 2.55877L9.9489 3.1826ZM9.83324 3.47691C9.79073 3.57223 9.75513 3.65273 9.72788 3.70726C9.71097 3.7411 9.68359 3.79326 9.64389 3.85103C9.60366 3.90956 9.5639 3.95371 9.56067 3.95741L8.16287 2.7361C8.16505 2.73361 8.16434 2.73442 8.16324 2.7357C8.16182 2.73734 8.15822 2.74155 8.15348 2.74732C8.14858 2.75329 8.1424 2.76101 8.13545 2.77019C8.12843 2.77945 8.12129 2.7893 8.11414 2.79969C8.0996 2.82085 8.08841 2.83938 8.08045 2.8534C8.07302 2.86648 8.06846 2.87553 8.06744 2.87757C8.06639 2.87968 8.06705 2.87844 8.0702 2.87169C8.07326 2.86514 8.07759 2.85572 8.0838 2.84201C8.08995 2.82841 8.09732 2.81199 8.10639 2.7917C8.11545 2.77144 8.1258 2.74823 8.13793 2.72102L9.83324 3.47691ZM8.25515 4.04916L8.25154 4.04604L9.46478 2.64124L9.46839 2.64435L8.25515 4.04916ZM9.67821 3.77824C9.53295 4.05232 9.11827 4.77005 7.93714 6.81511L6.32977 5.88677C7.52751 3.81297 7.91377 3.14367 8.03812 2.90904L9.67821 3.77824ZM7.93675 6.81578C8.01101 6.68745 8.03171 6.53261 7.99351 6.38889L6.1996 6.86564C6.11155 6.53433 6.15816 6.18335 6.33016 5.8861L7.93675 6.81578ZM7.99274 6.38599C7.95455 6.24414 7.86068 6.12008 7.73013 6.04472L6.80212 7.65227C6.50397 7.48015 6.28907 7.19801 6.20037 6.86854L7.99274 6.38599ZM7.72839 6.04372C7.62275 5.98303 7.52 5.98343 7.44905 6.00254C7.37838 6.02157 7.28775 6.07311 7.22572 6.18119L8.8356 7.10516C8.43112 7.80991 7.50672 8.057 6.80386 7.65327L7.72839 6.04372ZM7.22699 6.17898L8.22063 4.45868L9.82796 5.38707L8.83433 7.10737L7.22699 6.17898ZM8.22119 4.45771C8.48926 3.99489 9.03643 3.76328 9.5613 3.90534L9.07635 5.69705C9.37097 5.7768 9.67806 5.64587 9.8274 5.38805L8.22119 4.45771ZM9.55899 3.90472C10.0797 4.04421 10.4409 4.51605 10.4409 5.05407H8.58473C8.58473 5.35529 8.78692 5.61952 9.07865 5.69767L9.55899 3.90472ZM10.4409 5.05407V10.4622H8.58473V5.05407H10.4409ZM10.4409 10.4622C10.4409 10.3564 10.4017 10.2603 10.3374 10.1867C10.2732 10.1133 10.1599 10.0374 10.003 10.0271L9.88106 11.8793C9.09978 11.8279 8.58473 11.1473 8.58473 10.4622H10.4409ZM9.99102 10.0264C9.88138 10.0206 9.74743 10.0607 9.64563 10.1624L10.957 11.476C10.664 11.7685 10.2755 11.9002 9.89299 11.88L9.99102 10.0264ZM9.64506 10.1629C9.55698 10.251 9.50802 10.3717 9.50802 10.4927H11.3642C11.3642 10.8613 11.2195 11.2136 10.9576 11.4755L9.64506 10.1629ZM9.50802 10.4927V6.9557H11.3642V10.4927H9.50802ZM9.50802 6.9557C9.50802 6.29849 10.0408 5.76571 10.698 5.76571V7.6219C11.0659 7.6219 11.3642 7.32363 11.3642 6.9557H9.50802ZM10.698 5.76571C11.3549 5.76571 11.888 6.29796 11.888 6.9557H10.0318C10.0318 7.32384 10.3305 7.6219 10.698 7.6219V5.76571ZM11.888 6.95574L11.8878 11.2967L10.0317 11.2966L10.0318 6.95567L11.888 6.95574ZM11.8878 11.2967C11.8878 11.0386 11.6794 10.8302 11.4214 10.8302V12.6864C10.6543 12.6864 10.0317 12.0637 10.0317 11.2967H11.8878ZM11.4214 10.8302C11.3006 10.8302 11.1805 10.8789 11.0926 10.9666L12.4038 12.2804C12.1418 12.5419 11.7895 12.6864 11.4214 12.6864V10.8302ZM11.0913 10.9678C11.0036 11.0558 10.9549 11.1759 10.9549 11.2966H12.8111C12.8111 11.6647 12.6667 12.0171 12.4051 12.2791L11.0913 10.9678ZM10.9549 11.2966V6.9557H12.8111V11.2966H10.9549ZM10.9549 6.9557C10.9549 6.29887 11.4872 5.76571 12.1449 5.76571V7.62189C12.5131 7.62189 12.8111 7.32324 12.8111 6.9557H10.9549ZM12.1449 5.76571C12.8018 5.76571 13.3349 6.29795 13.3349 6.9557H11.4787C11.4787 7.32384 11.7774 7.62189 12.1449 7.62189V5.76571ZM13.3349 6.95574L13.3347 10.4521L11.4786 10.452L11.4787 6.95566L13.3349 6.95574ZM13.3347 10.452V10.4927H11.4786V10.452H13.3347ZM13.3347 10.4927C13.3347 10.234 13.1259 10.0261 12.8685 10.0261V11.8822C12.1017 11.8822 11.4786 11.2601 11.4786 10.4927H13.3347ZM12.8685 10.0261C12.7451 10.0261 12.6257 10.0762 12.5403 10.1614L13.8503 11.4763C13.5897 11.736 13.2387 11.8822 12.8685 11.8822V10.0261ZM12.5397 10.162C12.4509 10.2506 12.402 10.3717 12.402 10.4925H14.2582C14.2582 10.861 14.1135 11.2136 13.8509 11.4757L12.5397 10.162ZM12.402 10.4925V6.95552H14.2582V10.4925H12.402ZM12.402 6.95552C12.402 6.29868 12.9342 5.76553 13.592 5.76553V7.62171C13.9601 7.62171 14.2582 7.32307 14.2582 6.95552H12.402ZM13.592 5.76553C14.2488 5.76553 14.782 6.29776 14.782 6.95552H12.9258C12.9258 7.32366 13.2244 7.62171 13.592 7.62171V5.76553ZM14.782 6.95563L14.7817 9.62544L12.9255 9.62521L12.9258 6.9554L14.782 6.95563ZM14.7817 9.62532C14.7817 9.36787 14.5737 9.15903 14.315 9.15903V11.0152C13.5477 11.0152 12.9255 10.3921 12.9255 9.62532H14.7817ZM14.315 9.15903C14.1933 9.15903 14.0732 9.20833 13.9859 9.29545L15.2972 10.6092C15.0361 10.8698 14.6844 11.0152 14.315 11.0152V9.15903ZM13.9853 9.29607C13.8969 9.38444 13.8484 9.50505 13.8484 9.62532H15.7046C15.7046 9.99289 15.5607 10.3457 15.2978 10.6086L13.9853 9.29607ZM13.8484 9.6253L13.8486 4.21381L15.7048 4.21386L15.7046 9.62535L13.8484 9.6253ZM13.8486 4.21383C13.8486 2.8371 12.8475 1.86862 11.7987 1.86862V0.0124388C14.034 0.0124388 15.7048 1.98112 15.7048 4.21383H13.8486ZM10.9063 0.685565L10.9063 0.685512L12.6911 1.19545L12.6911 1.1955L10.9063 0.685565Z" fill="#4CAF4F" mask="url(#path-1-inside-1_211_2339)"/>
<path d="M5.83246 15.5854C5.70815 15.6602 5.54744 15.6199 5.47315 15.4957C5.3987 15.3718 5.43904 15.2109 5.56285 15.1364M5.83246 15.5854L8.09506 12.5409C8.31366 12.4095 8.60195 12.4614 8.73675 12.6564M5.83246 15.5854L8.86532 13.7659H8.86549L8.86582 13.7658M5.83246 15.5854L10.0298 14.1441C10.1358 14.0805 10.2106 13.9798 10.2404 13.8602M5.56285 15.1364L8.59589 13.3169C8.70183 13.2533 8.77677 13.1524 8.80662 13.0332M5.56285 15.1364L5.59356 15.1876L5.69756 15.361L5.69776 15.3613L5.74463 15.4394L5.80157 15.5344L5.80169 15.5343L5.80175 15.5342L5.80199 15.5341M5.56285 15.1364L5.59361 15.1876M8.80662 13.0332C8.83942 12.9023 8.81449 12.7685 8.73675 12.6564M8.80662 13.0332L8.88147 13.052L8.87433 12.8981C8.8694 12.7922 8.83842 12.6982 8.786 12.6226L8.78586 12.6224L8.73675 12.6564M8.80662 13.0332L8.88148 13.052L8.88885 13.2108L8.73702 13.3019H8.7368L8.6266 13.368L8.62658 13.368L8.62655 13.368L5.59373 15.1875M8.73675 12.6564L8.78582 12.6224L6.5465 16.7748C6.64173 16.7176 6.67323 16.5937 6.61549 16.4976C6.55823 16.4022 6.43396 16.3709 6.33825 16.4282L9.37113 14.6088C9.44083 14.567 9.51385 14.5354 9.58844 14.5136L10.0588 14.1925L10.0589 14.1924L10.0848 14.1748C10.1951 14.0994 10.2681 13.995 10.2981 13.8748L10.2982 13.8747L10.2404 13.8602M5.59373 15.1875C5.68917 15.1304 5.8134 15.1614 5.87097 15.2568C5.8711 15.257 5.87122 15.2572 5.87134 15.2574C5.92858 15.3535 5.89701 15.477 5.80199 15.5341M5.59373 15.1875C5.59369 15.1875 5.59365 15.1876 5.59361 15.1876M5.59373 15.1875L5.59361 15.1876M5.80199 15.5341L8.83461 13.7149L8.83466 13.7148L8.83482 13.7147C8.83491 13.7147 8.835 13.7146 8.8351 13.7146L8.86532 13.7649L8.86549 13.7652L8.86582 13.7658M5.80199 15.5341L5.698 15.3612L5.69779 15.3608L5.66261 15.3023L5.59361 15.1876M8.86582 13.7658V13.6953C8.92434 13.657 8.97789 13.6125 9.02572 13.563L9.52493 13.3024L9.52496 13.3024L9.5526 13.2879C9.63286 13.246 9.71378 13.2265 9.79065 13.2265C9.83222 13.2265 9.87509 13.2316 9.91876 13.2424C9.91878 13.2424 9.91881 13.2424 9.91883 13.2425C9.91898 13.2425 9.91913 13.2425 9.91928 13.2426L10.017 12.8502M8.86582 13.7658L9.55491 13.3523C9.66052 13.289 9.78417 13.2705 9.90438 13.3004C10.0239 13.3302 10.1248 13.405 10.1882 13.5108C10.2517 13.6167 10.2702 13.7408 10.2404 13.8602M10.017 12.8502C10.017 12.8502 10.0169 12.8502 10.0169 12.8502M10.017 12.8502C10.2561 12.9099 10.4594 13.0609 10.5861 13.2719L10.6372 13.2413M10.017 12.8502L10.0314 12.7923M10.0169 12.8502L9.91891 13.2425C10.0547 13.2764 10.1672 13.3598 10.2392 13.4799C10.2393 13.48 10.2393 13.48 10.2393 13.4801C10.2393 13.4801 10.2393 13.4801 10.2394 13.4801C10.3116 13.6009 10.332 13.7393 10.2982 13.8745L10.2982 13.8746L10.2404 13.8602M10.0169 12.8502C10.0169 12.8501 10.0168 12.8501 10.0168 12.8501L10.0162 12.85C9.9445 12.8322 9.87184 12.8231 9.79956 12.8224M10.0169 12.8502L10.0314 12.7923M9.57931 14.9555L9.84092 14.7986L10.1107 14.9577C10.1915 15.0053 10.2525 15.065 10.2938 15.134L10.2939 15.1342C10.294 15.1343 10.294 15.1344 10.2941 15.1345L10.2432 15.1651M9.57931 14.9555L10.3531 15.5291C10.3868 15.3934 10.3663 15.2551 10.2941 15.1345L10.2432 15.1651M9.57931 14.9555L9.61001 15.0067M9.57931 14.9555L9.57929 14.9555L9.61001 15.0067M10.2432 15.1651C10.1122 14.9468 9.82795 14.8758 9.61001 15.0067M10.2432 15.1651C10.3068 15.2709 10.3253 15.3952 10.2955 15.5147L9.61001 15.0067M10.6854 14.8848C10.6876 14.8884 10.6898 14.892 10.692 14.8956L10.6854 14.8848ZM10.6854 14.8848C10.6697 14.897 10.6538 14.9089 10.6376 14.9206C10.6387 14.9223 10.6398 14.9241 10.6408 14.9259L10.6854 14.8848ZM10.6131 14.177C10.6466 14.1129 10.6727 14.0445 10.6906 13.9728L10.6131 14.177ZM10.6131 14.177C10.6298 14.1874 10.6463 14.1981 10.6627 14.2091C10.6999 14.1399 10.7288 14.0656 10.7484 13.9871C10.8122 13.7321 10.7727 13.4672 10.6372 13.2413M10.6131 14.177L10.6906 13.9727C10.7504 13.7335 10.7127 13.4832 10.5863 13.2723L10.5862 13.272C10.5861 13.272 10.5861 13.2719 10.5861 13.2719L10.6372 13.2413M10.6372 13.2413C10.5019 13.0156 10.2867 12.8561 10.0314 12.7923M10.0314 12.7923L9.79432 12.7624M9.79432 12.7624C9.79646 12.7824 9.79821 12.8024 9.79956 12.8224M9.79432 12.7624C9.7931 12.7624 9.79187 12.7624 9.79065 12.7624C9.63372 12.7624 9.47956 12.8026 9.33787 12.8766M9.79432 12.7624L9.33787 12.8766M9.79956 12.8224C9.80029 12.8333 9.80091 12.8442 9.80142 12.855L9.79065 12.8555L9.50255 12.8689M9.79956 12.8224C9.79659 12.8224 9.79362 12.8224 9.79065 12.8224C9.69273 12.8225 9.59559 12.8381 9.50255 12.8689M9.50255 12.8689L9.33787 12.8766M9.50255 12.8689C9.4553 12.8845 9.40911 12.904 9.3644 12.9274C9.34818 12.9359 9.33215 12.9448 9.31634 12.9543L9.31617 12.9544L9.28318 12.9742M9.33787 12.8766L9.07339 13.1001L9.07348 13.1L9.25677 13.1459C9.25676 13.1459 9.25675 13.146 9.25674 13.146C9.27105 13.0889 9.2798 13.0315 9.28318 12.9742M9.33787 12.8766L9.26703 12.7408M9.33787 12.8766C9.33053 12.7184 9.28885 12.5628 9.20885 12.4238C9.19067 12.4319 9.17265 12.4403 9.1548 12.4491M9.28318 12.9742C9.28505 12.9424 9.28527 12.9106 9.28385 12.8791C9.28176 12.8325 9.27612 12.7863 9.26703 12.7408M9.28318 12.9742L9.26703 12.7408M9.26703 12.7408L9.12314 12.4652C9.13363 12.4597 9.14419 12.4544 9.1548 12.4491M9.26703 12.7408L9.11827 12.3922C9.13117 12.4108 9.14335 12.4298 9.1548 12.4491M9.26703 12.7408C9.24663 12.6388 9.20887 12.5403 9.1548 12.4491M10.3464 14.558L10.4258 14.4235C10.3914 14.4557 10.3544 14.4853 10.3151 14.5122C10.3 14.5225 10.2846 14.5324 10.2688 14.5419L10.2685 14.542L10.235 14.5621L10.3464 14.558ZM2.93563 12.3984L2.88287 12.3706C2.87317 12.3881 2.84902 12.4316 2.81336 12.4958C2.80452 12.5117 2.79499 12.5289 2.78479 12.5473C2.80297 12.5564 2.82131 12.5643 2.83968 12.5712C2.87105 12.5147 2.90303 12.4571 2.93563 12.3984ZM7.0826 17.669C7.08256 17.669 7.08251 17.6691 7.08246 17.6691L7.0826 17.669Z" fill="#4CAF4F" stroke="#4CAF4F" stroke-width="0.928093"/>
<path d="M18.7845 13.2345L18.7844 13.2346L18.7845 13.2345ZM18.7845 13.2345C18.6872 13.0603 18.6912 12.8458 18.7942 12.6741L18.7845 13.2345ZM13.0429 12.8223C12.9704 12.8229 12.8975 12.832 12.8255 12.8501L13.0429 12.8223ZM13.0429 12.8223C13.0442 12.8023 13.046 12.7823 13.0481 12.7624L13.0429 12.8223ZM18.3668 13.56L18.3274 13.489L18.3668 13.56ZM17.2487 15.1875C17.2486 15.1874 17.2485 15.1874 17.2484 15.1873L17.2485 15.1874L17.2487 15.1875ZM15.7598 17.6694C15.7597 17.6694 15.7596 17.6693 15.7595 17.6692L15.7598 17.6694ZM15.7593 17.6691L15.7595 17.6692L15.7593 17.6691Z" fill="#4CAF4F" stroke="#4CAF4F" stroke-width="0.928093"/>
</svg>
