<svg width="35" height="20" viewBox="0 0 35 20" fill="none" xmlns="http://www.w3.org/2000/svg">
<path d="M17.3729 0.393555C14.887 0.393555 12.8633 2.43574 12.8633 4.93217C12.8633 6.51143 13.6743 7.90586 14.8989 8.71865C13.4198 9.2132 12.14 10.1375 11.2014 11.3467C10.6824 10.9475 10.1025 10.6265 9.47738 10.3964C10.4253 9.69266 11.0448 8.56217 11.0448 7.29159C11.0448 5.17432 9.33242 3.44108 7.22798 3.44108C5.12355 3.44108 3.41116 5.17432 3.41116 7.29159C3.41116 8.5629 4.03115 9.69391 4.9799 10.3977C2.46808 11.3246 0.674164 13.7513 0.674164 16.6073V18.6135C0.674421 18.7664 0.735597 18.9129 0.844067 19.0206C0.952536 19.1286 1.09931 19.1887 1.25225 19.1882H10.054C10.0754 19.1905 10.0967 19.1918 10.118 19.1916H24.6282C24.6495 19.1918 24.6711 19.1905 24.6922 19.1882H33.4946C33.811 19.1869 34.0673 18.9301 34.0681 18.6135V16.6073C34.0681 13.7513 32.2773 11.3246 29.7668 10.3974C30.7155 9.69391 31.3355 8.56263 31.3355 7.29133C31.3355 5.17406 29.6231 3.44081 27.5187 3.44081C25.4143 3.44081 23.7018 5.17406 23.7018 7.29133C23.7018 8.56191 24.3216 9.6926 25.2695 10.3962C24.6431 10.6267 24.063 10.9488 23.5433 11.349C22.605 10.1391 21.327 9.21349 19.848 8.71865C21.0723 7.90586 21.8836 6.51143 21.8836 4.93217C21.8836 2.43574 19.8588 0.393555 17.373 0.393555H17.3729ZM17.3729 1.5451C19.232 1.5451 20.7308 3.05396 20.7308 4.93217C20.7308 6.7957 19.2554 8.28988 17.4168 8.31383C17.4022 8.31383 17.3878 8.31178 17.3729 8.31178C17.358 8.31178 17.3438 8.31383 17.3289 8.31383C15.4903 8.29018 14.0159 6.79576 14.0159 4.93217C14.0159 3.05369 15.5134 1.5451 17.3726 1.5451H17.3729ZM7.22805 4.59256C8.70322 4.59256 9.89332 5.78984 9.89332 7.29152C9.89332 8.78314 8.71861 9.97529 7.25733 9.99148C7.24756 9.99148 7.23805 9.99045 7.22803 9.99045C7.21826 9.99045 7.20875 9.99148 7.19873 9.99148C5.73745 9.97528 4.56274 8.78288 4.56274 7.29152C4.56274 5.7899 5.75284 4.59256 7.22801 4.59256H7.22805ZM27.5183 4.59256C28.9935 4.59256 30.1836 5.78984 30.1836 7.29152C30.1836 8.78314 29.0089 9.97529 27.5476 9.99148C27.5378 9.99148 27.5283 9.99045 27.5183 9.99045C27.5085 9.99045 27.499 9.99148 27.489 9.99148C26.0277 9.97528 24.853 8.78288 24.853 7.29152C24.853 5.7899 26.0431 4.59256 27.5183 4.59256H27.5183ZM17.3288 9.46532C17.3434 9.46557 17.3578 9.46737 17.3727 9.46737C17.3874 9.46737 17.4018 9.46532 17.4167 9.46532C21.1039 9.48896 24.0549 12.4653 24.0549 16.191L24.0546 18.0397H10.6914V16.191C10.6914 12.4649 13.6414 9.48901 17.3282 9.46532H17.3288ZM7.18396 11.1443C7.19861 11.1446 7.21301 11.1464 7.22792 11.1464C7.24282 11.1464 7.25696 11.1443 7.27187 11.1443C8.51903 11.1544 9.65722 11.5844 10.5635 12.3038C9.915 13.4513 9.53996 14.7758 9.53996 16.1913V18.0356H1.82525V16.6072C1.82525 13.5792 4.20599 11.168 7.18383 11.1441L7.18396 11.1443ZM27.4742 11.1443C27.4891 11.1446 27.5033 11.1464 27.5182 11.1464C27.5331 11.1464 27.5472 11.1443 27.5621 11.1443C30.54 11.168 32.9207 13.5796 32.9207 16.6075V18.0356H25.2021L25.2018 16.1913C25.2018 14.7766 24.8278 13.4531 24.1805 12.3059C25.0871 11.5854 26.2261 11.1543 27.4743 11.1443H27.4742Z" fill="#103E13"/>
</svg>
