<svg width="26" height="22" viewBox="0 0 26 22" fill="none" xmlns="http://www.w3.org/2000/svg">
<path d="M0.724512 21.334C0.724512 21.5512 0.900791 21.7277 1.11826 21.7277H25.0963C25.3135 21.7277 25.49 21.5514 25.49 21.334C25.49 21.1168 25.3138 20.9402 25.0963 20.9402H24.3684V9.63516C24.3684 9.41797 24.1921 9.24141 23.9747 9.24141L17.546 9.24168V1.09132C17.546 0.953484 17.474 0.82608 17.3565 0.754684C17.2393 0.683021 17.0926 0.678628 16.9707 0.742054L9.66176 4.54745C9.53133 4.61528 9.45006 4.74982 9.45006 4.89672V12.0159H2.37657C2.15938 12.0159 1.98282 12.1922 1.98282 12.4097V20.9403H1.11738C0.900194 20.94 0.724182 21.1163 0.724182 21.3338L0.724512 21.334ZM17.5461 15.2051H23.5813V20.9406L17.5461 20.9403V15.2051ZM17.5461 12.469H23.5813V14.4179L17.5461 14.4177V12.469ZM17.5461 10.0288H23.5813V11.682H17.5461V10.0288ZM10.2371 5.13581L16.7583 1.74035V20.9399H10.2371V5.13581ZM4.71675 17.7954C4.71675 16.9783 5.3642 16.3132 6.1602 16.3132C6.95619 16.3132 7.60393 16.978 7.60393 17.7954V20.9404H4.71675V17.7954ZM2.77029 12.8033H9.44994V20.9403H8.39141V17.7953C8.39141 16.544 7.39087 15.5259 6.1602 15.5259C4.93009 15.5259 3.92955 16.5437 3.92955 17.7953V20.9403H2.77029V12.8033Z" fill="#103E13"/>
</svg>
