<svg width="34" height="23" viewBox="0 0 34 23" fill="none" xmlns="http://www.w3.org/2000/svg">
<path d="M32.4496 21.9085L32.4496 21.9085C32.5809 21.8175 32.6927 21.7013 32.7787 21.5667L33.072 21.754L32.7787 21.5667C32.8646 21.4321 32.9229 21.2818 32.9503 21.1244C32.9776 20.967 32.9734 20.8058 32.9378 20.6501L33.2771 20.5727L32.9378 20.6501C32.9023 20.4944 32.8362 20.3473 32.7433 20.2174L32.7417 20.2152C31.4347 18.3573 29.6537 16.8834 27.5841 15.9468L27.0794 15.7184L27.5042 15.3628C28.764 14.3084 29.6682 12.8912 30.0937 11.3044C30.5192 9.71761 30.4453 8.03822 29.8821 6.49489C29.3189 4.95157 28.2938 3.61932 26.9463 2.67953C25.5987 1.73973 23.9943 1.23807 22.3514 1.24284L22.3499 1.24285C21.6187 1.24163 20.891 1.34258 20.1879 1.54278L20.1816 1.54455L20.1816 1.5445C20.0254 1.58583 19.879 1.65782 19.7509 1.75627C19.6228 1.85473 19.5156 1.97769 19.4355 2.11798C19.3553 2.25828 19.3039 2.41312 19.2842 2.57347C19.2645 2.73383 19.2769 2.89651 19.3206 3.05203C19.3644 3.20755 19.4387 3.35282 19.5391 3.47937L19.2665 3.69573L19.5391 3.47937C19.6396 3.60592 19.7642 3.71122 19.9057 3.78914L19.7378 4.09402L19.9057 3.78914C20.0472 3.86707 20.2028 3.91606 20.3635 3.93327C20.5241 3.95048 20.6866 3.93556 20.8414 3.88938L20.8454 3.88819L20.8454 3.88821C21.3351 3.74852 21.8419 3.67813 22.3511 3.67909M32.4496 21.9085L22.3504 4.02712M32.4496 21.9085L32.4455 21.9114C32.2424 22.0566 31.9987 22.1343 31.749 22.1336C31.5537 22.1324 31.3614 22.0848 31.1881 21.9946C31.0149 21.9045 30.8657 21.7745 30.7526 21.6153M32.4496 21.9085L30.4683 21.816M22.3511 3.67909L22.3504 4.02712M22.3511 3.67909C22.3509 3.67909 22.3507 3.67909 22.3504 3.67909V4.02712M22.3511 3.67909C23.8277 3.67926 25.2438 4.26593 26.288 5.31008C27.3323 6.35439 27.919 7.77077 27.919 9.24764C27.919 10.7245 27.3323 12.1409 26.288 13.1852C25.2437 14.2295 23.8273 14.8162 22.3504 14.8162C22.0274 14.8162 21.7175 14.9445 21.4891 15.173C21.2607 15.4014 21.1323 15.7113 21.1323 16.0343C21.1323 16.3574 21.2607 16.6672 21.4891 16.8957C21.7175 17.1241 22.0274 17.2524 22.3504 17.2524H22.3508C23.9982 17.2543 25.6212 17.6515 27.0832 18.4107C28.5452 19.1699 29.8035 20.2688 30.7526 21.6153M22.3504 4.02712C23.735 4.02712 25.0629 4.57714 26.0419 5.55618C27.0209 6.53522 27.571 7.86308 27.571 9.24764C27.571 10.6322 27.0209 11.9601 26.0419 12.9391C25.0629 13.9181 23.735 14.4682 22.3504 14.4682C21.9351 14.4682 21.5367 14.6332 21.243 14.9269C20.9493 15.2206 20.7843 15.619 20.7843 16.0343C20.7843 16.4497 20.9493 16.848 21.243 17.1418C21.5367 17.4355 21.9351 17.6005 22.3504 17.6005C23.9422 17.6022 25.5102 17.986 26.9228 18.7196C28.3354 19.4531 29.5513 20.515 30.4683 21.816M30.7526 21.6153C30.7525 21.6151 30.7524 21.6149 30.7522 21.6147L30.4683 21.816M30.7526 21.6153C30.7527 21.6154 30.7528 21.6154 30.7528 21.6155L30.4683 21.816M16.8667 15.3634L16.444 15.719L16.9473 15.9468C19.0169 16.8834 20.7978 18.3573 22.1049 20.2152L22.1099 20.2223L22.1152 20.2291C22.2168 20.3592 22.2908 20.5086 22.3329 20.6681C22.375 20.8277 22.3842 20.9942 22.3599 21.1574C22.3357 21.3206 22.2786 21.4772 22.192 21.6177C22.1054 21.7582 21.9912 21.8796 21.8563 21.9747C21.7214 22.0697 21.5685 22.1363 21.4071 22.1704C21.2456 22.2045 21.0789 22.2055 20.9171 22.1733C20.7552 22.1411 20.6016 22.0763 20.4656 21.9829C20.3295 21.8895 20.2139 21.7694 20.1256 21.63L20.1212 21.6229L20.1164 21.6161C19.1692 20.267 17.9112 19.1659 16.4486 18.4057C14.986 17.6455 13.3619 17.2487 11.7136 17.2487C10.0653 17.2487 8.4412 17.6455 6.97864 18.4057C5.51607 19.1659 4.25803 20.267 3.31087 21.6161L3.3101 21.6172C3.19875 21.7771 3.0503 21.9076 2.87746 21.9975C2.70461 22.0875 2.51253 22.1342 2.31768 22.1336L2.31555 22.1336C2.06566 22.1344 1.82183 22.0567 1.61853 21.9114L1.61686 21.9102C1.35334 21.7242 1.17436 21.4413 1.11918 21.1235C1.06401 20.8058 1.13706 20.4791 1.32231 20.2152C2.62941 18.3573 4.41036 16.8834 6.47998 15.9468L6.98329 15.719L6.56053 15.3634C5.30411 14.3064 4.40309 12.8887 3.97963 11.3023C3.55618 9.71601 3.63077 8.03783 4.19329 6.49531C4.75582 4.9528 5.77907 3.62058 7.12432 2.67925C8.46957 1.73793 10.0717 1.23304 11.7136 1.23304C13.3555 1.23304 14.9577 1.73793 16.3029 2.67925C17.6482 3.62058 18.6714 4.9528 19.234 6.49531C19.7965 8.03783 19.8711 9.71601 19.4476 11.3023C19.0242 12.8887 18.1231 14.3064 16.8667 15.3634ZM7.08354 6.15392C6.47166 7.06966 6.14507 8.14629 6.14507 9.24764C6.14507 10.7245 6.73175 12.1409 7.77606 13.1852C8.82037 14.2295 10.2368 14.8162 11.7136 14.8162C12.815 14.8162 13.8916 14.4896 14.8073 13.8777C15.7231 13.2658 16.4368 12.3962 16.8583 11.3786C17.2798 10.3611 17.39 9.24147 17.1752 8.16127C16.9603 7.08108 16.43 6.08886 15.6512 5.31008C14.8724 4.5313 13.8802 4.00095 12.8 3.78609C11.7198 3.57122 10.6002 3.6815 9.58263 4.10297C8.56511 4.52444 7.69542 5.23818 7.08354 6.15392Z" fill="#4CAF4F" stroke="#4CAF4F" stroke-width="0.696069"/>
</svg>
